<svg width="164" height="168" viewBox="0 0 164 168" fill="none" xmlns="http://www.w3.org/2000/svg">
<g filter="url(#filter0_d_371_71)">
<mask id="mask0_371_71" style="mask-type:alpha" maskUnits="userSpaceOnUse" x="4" y="0" width="160" height="160">
<path d="M32.9511 50.1895L37.3306 45.7263C42.2154 40.8421 50.3007 40.8421 55.3539 46.0632L55.5224 46.3158C59.6492 50.5263 65.1236 52.5474 71.1033 53.1368C79.2728 53.8947 87.1896 58.2737 92.4113 66.1895C98.1383 75.2842 98.0541 87.4105 92.0744 96.4211C89.819 99.9872 86.786 102.997 83.2025 105.225C79.619 107.453 75.5778 108.842 71.3815 109.288C67.1852 109.733 62.9424 109.224 58.9709 107.798C54.9993 106.372 51.4018 104.066 48.4478 101.053C43.7314 96.4211 41.0363 90.4421 40.3625 84.2105C39.6888 78.0632 37.2463 72.2526 32.9511 67.9579C28.0662 63.1579 28.0662 55.0737 32.9511 50.1895ZM68.324 117.895C58.4701 117.895 49.29 114.105 42.4681 107.116C36.5726 101.053 32.8668 93.4737 31.9404 85.221C31.6877 82.6947 30.9298 79.4105 28.9084 76.3789C23.8552 83.3684 20.8232 91.7895 20.8232 101.053C20.8232 114.863 27.5609 127.074 37.9201 134.737H147.155V126.316C147.155 96 127.026 70.3158 99.4859 61.8947C106.982 73.6842 106.813 89.4316 99.149 101.053C92.4113 111.579 80.7887 117.895 68.324 117.895ZM111.614 46.821H122.31C129.637 46.821 136.038 51.9579 136.038 61.1368V67.3684H146.566V58.9474C146.566 46.3158 135.364 36.7158 122.31 36.7158H111.614C104.623 36.7158 98.6437 29.8105 98.6437 22.7368C98.6437 15.6632 104.623 10.4421 111.614 10.4421V0C98.6437 0 88.2002 10.4421 88.2002 23.4105C88.2002 36.3789 98.6437 46.821 111.614 46.821ZM25.0343 46.7368C25.5396 45.8947 26.2134 45.0526 26.9714 44.2105L31.3509 39.8316C32.1089 39.0737 32.9511 38.4842 33.7933 37.8947L21.9181 25.8526C23.0972 23.5789 22.6761 20.6316 20.8232 18.6947C19.6171 17.5209 18.0005 16.864 16.3174 16.864C14.6342 16.864 13.0176 17.5209 11.8115 18.6947C10.6324 19.8737 10.0429 21.3053 9.95866 22.8211C8.44267 22.9053 7.01091 23.4947 5.83181 24.6737C3.3894 27.1158 3.3894 31.1579 5.83181 33.6842C7.7689 35.5368 10.6324 35.9579 12.9906 34.7789L25.0343 46.7368ZM142.018 20.1263C146.313 15.8316 149.008 10.0211 149.008 3.53684H138.48C138.48 10.5263 132.585 16.4211 125.594 16.4211V26.8632C141.26 26.8632 153.556 39.6632 153.556 55.3263V75.7895H163.999V55.3263C164.041 47.9807 161.998 40.7739 158.107 34.5431C154.216 28.3122 148.637 23.3131 142.018 20.1263ZM29.2453 160H147.155C156.504 160 163.999 152.505 163.999 143.158H12.4011C12.4011 147.625 14.1757 151.909 17.3346 155.067C20.4935 158.226 24.778 160 29.2453 160Z" fill="black"/>
</mask>
<g mask="url(#mask0_371_71)">
<path d="M27.9511 50.1895L32.3306 45.7263C37.2154 40.8421 45.3007 40.8421 50.3539 46.0632L50.5224 46.3158C54.6492 50.5263 60.1236 52.5474 66.1033 53.1368C74.2728 53.8947 82.1896 58.2737 87.4113 66.1895C93.1383 75.2842 93.0541 87.4105 87.0744 96.4211C84.819 99.9872 81.786 102.997 78.2025 105.225C74.619 107.453 70.5778 108.842 66.3815 109.288C62.1852 109.733 57.9424 109.224 53.9709 107.798C49.9993 106.372 46.4018 104.066 43.4478 101.053C38.7314 96.4211 36.0363 90.4421 35.3625 84.2105C34.6888 78.0632 32.2463 72.2526 27.9511 67.9579C23.0662 63.1579 23.0662 55.0737 27.9511 50.1895ZM63.324 117.895C53.4701 117.895 44.29 114.105 37.4681 107.116C31.5726 101.053 27.8668 93.4737 26.9404 85.221C26.6877 82.6947 25.9298 79.4105 23.9084 76.3789C18.8552 83.3684 15.8232 91.7895 15.8232 101.053C15.8232 114.863 22.5609 127.074 32.9201 134.737H142.155V126.316C142.155 96 122.026 70.3158 94.4859 61.8947C101.982 73.6842 101.813 89.4316 94.149 101.053C87.4113 111.579 75.7887 117.895 63.324 117.895ZM106.614 46.821H117.31C124.637 46.821 131.038 51.9579 131.038 61.1368V67.3684H141.566V58.9474C141.566 46.3158 130.364 36.7158 117.31 36.7158H106.614C99.6234 36.7158 93.6437 29.8105 93.6437 22.7368C93.6437 15.6632 99.6234 10.4421 106.614 10.4421V0C93.6437 0 83.2002 10.4421 83.2002 23.4105C83.2002 36.3789 93.6437 46.821 106.614 46.821ZM20.0343 46.7368C20.5396 45.8947 21.2134 45.0526 21.9714 44.2105L26.3509 39.8316C27.1089 39.0737 27.9511 38.4842 28.7933 37.8947L16.9181 25.8526C18.0972 23.5789 17.6761 20.6316 15.8232 18.6947C14.6171 17.5209 13.0005 16.864 11.3174 16.864C9.63424 16.864 8.01758 17.5209 6.81152 18.6947C5.63243 19.8737 5.04288 21.3053 4.95866 22.8211C3.44267 22.9053 2.01091 23.4947 0.831813 24.6737C-1.6106 27.1158 -1.6106 31.1579 0.831813 33.6842C2.7689 35.5368 5.63242 35.9579 7.99062 34.7789L20.0343 46.7368ZM137.018 20.1263C141.313 15.8316 144.008 10.0211 144.008 3.53684H133.48C133.48 10.5263 127.585 16.4211 120.594 16.4211V26.8632C136.26 26.8632 148.556 39.6632 148.556 55.3263V75.7895H158.999V55.3263C159.041 47.9807 156.998 40.7739 153.107 34.5431C149.216 28.3122 143.637 23.3131 137.018 20.1263ZM24.2453 160H142.155C151.504 160 158.999 152.505 158.999 143.158H7.40107C7.40107 147.625 9.17573 151.909 12.3346 155.067C15.4935 158.226 19.778 160 24.2453 160Z" fill="#67135F" fill-opacity="0.6"/>
</g>
</g>
<defs>
<filter id="filter0_d_371_71" x="0" y="0" width="163" height="168" filterUnits="userSpaceOnUse" color-interpolation-filters="sRGB">
<feFlood flood-opacity="0" result="BackgroundImageFix"/>
<feColorMatrix in="SourceAlpha" type="matrix" values="0 0 0 0 0 0 0 0 0 0 0 0 0 0 0 0 0 0 127 0" result="hardAlpha"/>
<feOffset dy="4"/>
<feGaussianBlur stdDeviation="2"/>
<feComposite in2="hardAlpha" operator="out"/>
<feColorMatrix type="matrix" values="0 0 0 0 0 0 0 0 0 0 0 0 0 0 0 0 0 0 0.25 0"/>
<feBlend mode="normal" in2="BackgroundImageFix" result="effect1_dropShadow_371_71"/>
<feBlend mode="normal" in="SourceGraphic" in2="effect1_dropShadow_371_71" result="shape"/>
</filter>
</defs>
</svg>
