<svg width="178" height="127" viewBox="0 0 178 127" fill="none" xmlns="http://www.w3.org/2000/svg">
<g filter="url(#filter0_d_371_103)">
<mask id="mask0_371_103" style="mask-type:alpha" maskUnits="userSpaceOnUse" x="4" y="0" width="170" height="119">
<path d="M19.037 113.276C19.037 116.16 15.6689 118.509 11.5225 118.509C7.3575 118.509 4 116.16 4 113.276V5.23813C4 2.3375 7.3575 0 11.5225 0C15.6689 0 19.037 2.33484 19.037 5.23813V113.276ZM174 114.707C174 116.817 170.982 118.509 167.248 118.509C163.521 118.509 160.501 116.817 160.501 114.707V36.2525C160.501 34.1541 163.521 32.4434 167.248 32.4434C170.982 32.4434 174 34.1567 174 36.2525V114.707Z" fill="#405967"/>
<path d="M159.231 55.7466C162.947 55.7466 165.954 64.5813 165.954 75.4826C165.954 86.3811 162.947 95.2158 159.231 95.2158H20.2828C16.5747 95.2158 13.5545 86.3811 13.5545 75.4826C13.5545 64.5813 16.5747 55.7466 20.2828 55.7466H159.231ZM55.2603 28.5546C57.6589 36.7199 53.6533 45.0658 46.3114 47.2015C38.9828 49.3504 31.1043 44.4815 28.7058 36.3215C26.3178 28.1774 30.334 19.8155 37.6653 17.648C44.9992 15.4938 52.8723 20.3733 55.2603 28.528M57.7306 46.3913C57.7306 46.3913 87.1618 -4.80526 152.033 46.3913H57.7306Z" fill="#405967"/>
</mask>
<g mask="url(#mask0_371_103)">
<path d="M19.037 113.276C19.037 116.16 15.6689 118.509 11.5225 118.509C7.3575 118.509 4 116.16 4 113.276V5.23813C4 2.3375 7.3575 0 11.5225 0C15.6689 0 19.037 2.33484 19.037 5.23813V113.276ZM174 114.707C174 116.817 170.982 118.509 167.248 118.509C163.521 118.509 160.501 116.817 160.501 114.707V36.2525C160.501 34.1541 163.521 32.4434 167.248 32.4434C170.982 32.4434 174 34.1567 174 36.2525V114.707Z" fill="#67135F" fill-opacity="0.6"/>
<path d="M159.231 55.7466C162.947 55.7466 165.954 64.5813 165.954 75.4826C165.954 86.3811 162.947 95.2158 159.231 95.2158H20.2828C16.5747 95.2158 13.5545 86.3811 13.5545 75.4826C13.5545 64.5813 16.5747 55.7466 20.2828 55.7466H159.231ZM55.2603 28.5546C57.6589 36.7199 53.6533 45.0658 46.3114 47.2015C38.9828 49.3504 31.1043 44.4815 28.7058 36.3215C26.3178 28.1774 30.334 19.8155 37.6653 17.648C44.9992 15.4938 52.8723 20.3733 55.2603 28.528M57.7306 46.3913C57.7306 46.3913 87.1618 -4.80526 152.033 46.3913H57.7306Z" fill="#67135F" fill-opacity="0.6"/>
</g>
</g>
<defs>
<filter id="filter0_d_371_103" x="0" y="0" width="178" height="126.509" filterUnits="userSpaceOnUse" color-interpolation-filters="sRGB">
<feFlood flood-opacity="0" result="BackgroundImageFix"/>
<feColorMatrix in="SourceAlpha" type="matrix" values="0 0 0 0 0 0 0 0 0 0 0 0 0 0 0 0 0 0 127 0" result="hardAlpha"/>
<feOffset dy="4"/>
<feGaussianBlur stdDeviation="2"/>
<feComposite in2="hardAlpha" operator="out"/>
<feColorMatrix type="matrix" values="0 0 0 0 0 0 0 0 0 0 0 0 0 0 0 0 0 0 0.25 0"/>
<feBlend mode="normal" in2="BackgroundImageFix" result="effect1_dropShadow_371_103"/>
<feBlend mode="normal" in="SourceGraphic" in2="effect1_dropShadow_371_103" result="shape"/>
</filter>
</defs>
</svg>
