<svg width="32" height="40" viewBox="0 0 32 40" fill="none" xmlns="http://www.w3.org/2000/svg">
<path d="M15.9975 8.41275C17.6296 8.41275 19.1949 8.96696 20.349 9.95346C21.503 10.94 22.1514 12.278 22.1514 13.6731C22.1514 15.0682 21.503 16.4062 20.349 17.3927C19.1949 18.3792 17.6296 18.9334 15.9975 18.9334C14.3654 18.9334 12.8002 18.3792 11.6461 17.3927C10.492 16.4062 9.84369 15.0682 9.84369 13.6731C9.84369 12.278 10.492 10.94 11.6461 9.95346C12.8002 8.96696 14.3654 8.41275 15.9975 8.41275ZM15.9975 10.5169C15.0183 10.5169 14.0791 10.8494 13.3867 11.4413C12.6942 12.0332 12.3052 12.836 12.3052 13.6731C12.3052 14.5102 12.6942 15.313 13.3867 15.9049C14.0791 16.4968 15.0183 16.8293 15.9975 16.8293C16.9768 16.8293 17.916 16.4968 18.6084 15.9049C19.3008 15.313 19.6898 14.5102 19.6898 13.6731C19.6898 12.836 19.3008 12.0332 18.6084 11.4413C17.916 10.8494 16.9768 10.5169 15.9975 10.5169ZM4.42831 19.6846L15.9975 35.9495L27.5668 19.6846C28.8145 17.9297 29.4935 15.9227 29.5341 13.8695C29.5746 11.8162 28.9753 9.79071 27.7977 8.00084C26.62 6.21098 24.9064 4.72121 22.8327 3.68444C20.759 2.64767 18.3999 2.10125 15.9975 2.10125C13.5952 2.10125 11.2361 2.64767 9.1624 3.68444C7.0887 4.72121 5.37507 6.21098 4.1974 8.00084C3.01973 9.79071 2.42043 11.8162 2.46101 13.8695C2.50159 15.9227 3.18058 17.9297 4.42831 19.6846ZM29.6689 20.7787L15.9975 40L2.32615 20.7787C0.851992 18.7048 0.0499224 16.3329 0.00225599 13.9065C-0.0454105 11.4801 0.663041 9.08653 2.05491 6.97145C3.44678 4.85636 5.47194 3.09593 7.92257 1.87081C10.3732 0.645691 13.161 0 16 0C18.839 0 21.6268 0.645691 24.0774 1.87081C26.5281 3.09593 28.5532 4.85636 29.9451 6.97145C31.337 9.08653 32.0454 11.4801 31.9977 13.9065C31.9501 16.3329 31.148 18.7048 29.6738 20.7787H29.6689Z" fill="white"/>
</svg>
