<svg width="40" height="40" viewBox="0 0 40 40" fill="none" xmlns="http://www.w3.org/2000/svg">
<path d="M29 36.6668C22.1955 36.658 15.6722 33.951 10.8607 29.1394C6.04914 24.3279 3.34215 17.8046 3.33333 11.0001C3.33333 8.96678 4.14107 7.01674 5.57885 5.57896C7.01663 4.14118 8.96667 3.33344 11 3.33344C11.4306 3.33016 11.8604 3.36924 12.2833 3.45011C12.6922 3.51061 13.0941 3.61109 13.4833 3.75011C13.7571 3.84616 14.001 4.012 14.191 4.23123C14.381 4.45046 14.5105 4.71549 14.5667 5.00011L16.85 15.0001C16.9115 15.2715 16.9041 15.5541 16.8284 15.8219C16.7527 16.0898 16.6112 16.3344 16.4167 16.5334C16.2 16.7668 16.1833 16.7834 14.1333 17.8501C15.775 21.4515 18.6553 24.3437 22.25 26.0001C23.3333 23.9334 23.35 23.9168 23.5833 23.7001C23.7824 23.5056 24.027 23.364 24.2949 23.2883C24.5627 23.2126 24.8452 23.2052 25.1167 23.2668L35.1167 25.5501C35.3922 25.614 35.6469 25.747 35.8568 25.9365C36.0667 26.1261 36.225 26.3659 36.3167 26.6334C36.4573 27.029 36.5633 27.4361 36.6333 27.8501C36.7004 28.269 36.7339 28.6926 36.7333 29.1168C36.7026 31.1414 35.8722 33.0717 34.4233 34.4862C32.9744 35.9007 31.0248 36.6846 29 36.6668V36.6668Z" fill="#F8F8F8"/>
</svg>
