<svg width="168" height="168" viewBox="0 0 168 168" fill="none" xmlns="http://www.w3.org/2000/svg">
<g filter="url(#filter0_d_371_92)">
<mask id="mask0_371_92" style="mask-type:alpha" maskUnits="userSpaceOnUse" x="4" y="0" width="160" height="160">
<path fill-rule="evenodd" clip-rule="evenodd" d="M37.3333 18.2089C37.3333 7.88445 84 0 84 0C84 0 130.667 7.88445 130.667 18.2089C130.667 31.9733 122.178 37.7778 122.178 37.7778H45.8222C45.8222 37.7778 37.3333 31.9733 37.3333 18.2089ZM90.6667 20C90.6667 21.7681 89.9643 23.4638 88.714 24.714C87.4638 25.9643 85.7681 26.6667 84 26.6667C82.2319 26.6667 80.5362 25.9643 79.286 24.714C78.0357 23.4638 77.3333 21.7681 77.3333 20C77.3333 18.2319 78.0357 16.5362 79.286 15.286C80.5362 14.0357 82.2319 13.3333 84 13.3333C85.7681 13.3333 87.4638 14.0357 88.714 15.286C89.9643 16.5362 90.6667 18.2319 90.6667 20ZM118.729 54.5778C124.907 49.7556 123.947 44.4444 123.947 44.4444H44.0533C44.0533 44.4444 43.0889 49.7556 49.2711 54.5778C48.1331 59.7702 48.1737 65.1516 49.3901 70.3262C50.6064 75.5008 52.9676 80.3368 56.2997 84.4784C59.6319 88.62 63.8502 91.9618 68.6444 94.2578C73.4386 96.5538 78.6866 97.7457 84.0022 97.7457C89.3179 97.7457 94.5658 96.5538 99.36 94.2578C104.154 91.9618 108.373 88.62 111.705 84.4784C115.037 80.3368 117.398 75.5008 118.614 70.3262C119.831 65.1516 119.871 59.7702 118.733 54.5778H118.729ZM84 62.2222C96.0933 62.2222 104.547 60.8267 110.453 58.8178C110.934 62.5748 110.609 66.3911 109.499 70.0126C108.39 73.6341 106.522 76.9777 104.019 79.8208C101.516 82.6639 98.4369 84.9413 94.9855 86.5013C91.534 88.0613 87.7899 88.8682 84.0022 88.8682C80.2146 88.8682 76.4704 88.0613 73.019 86.5013C69.5675 84.9413 66.488 82.6639 63.9854 79.8208C61.4828 76.9777 59.6146 73.6341 58.5052 70.0126C57.3957 66.3911 57.0705 62.5748 57.5511 58.8178C63.4533 60.8267 71.9067 62.2222 84 62.2222ZM90.6667 106.667C91.8454 106.667 92.9759 107.135 93.8094 107.968C94.6429 108.802 95.1111 109.932 95.1111 111.111V117.253C95.1107 118.078 94.8805 118.887 94.4464 119.589C94.0124 120.291 93.3915 120.858 92.6533 121.227L90.6667 122.222L93.2311 135.044L112.076 106.778C113.364 106.778 114.564 106.787 115.649 106.796C139.671 112.276 164 123.449 164 140.258V160H4V140.258C4 123.449 29.3911 112.147 53.4133 106.667C53.3289 106.684 54.2311 106.698 55.88 106.711L74.92 135.267L77.3333 122.222L75.3467 121.227C74.6085 120.858 73.9876 120.291 73.5536 119.589C73.1195 118.887 72.8893 118.078 72.8889 117.253V111.111C72.8889 109.932 73.3571 108.802 74.1906 107.968C75.0241 107.135 76.1546 106.667 77.3333 106.667H90.6667ZM132.889 130.369C132.889 130.369 126.964 127.409 124 124.444C121.036 127.409 115.111 130.369 115.111 130.369C115.111 130.369 118.213 142.222 124 142.222C129.787 142.222 132.889 130.369 132.889 130.369Z" fill="black"/>
</mask>
<g mask="url(#mask0_371_92)">
<g filter="url(#filter1_d_371_92)">
<path fill-rule="evenodd" clip-rule="evenodd" d="M37.3333 18.2089C37.3333 7.88445 84 0 84 0C84 0 130.667 7.88445 130.667 18.2089C130.667 31.9733 122.178 37.7778 122.178 37.7778H45.8222C45.8222 37.7778 37.3333 31.9733 37.3333 18.2089ZM90.6667 20C90.6667 21.7681 89.9643 23.4638 88.714 24.714C87.4638 25.9643 85.7681 26.6667 84 26.6667C82.2319 26.6667 80.5362 25.9643 79.286 24.714C78.0357 23.4638 77.3333 21.7681 77.3333 20C77.3333 18.2319 78.0357 16.5362 79.286 15.286C80.5362 14.0357 82.2319 13.3333 84 13.3333C85.7681 13.3333 87.4638 14.0357 88.714 15.286C89.9643 16.5362 90.6667 18.2319 90.6667 20ZM118.729 54.5778C124.907 49.7556 123.947 44.4444 123.947 44.4444H44.0533C44.0533 44.4444 43.0889 49.7556 49.2711 54.5778C48.1331 59.7702 48.1737 65.1516 49.3901 70.3262C50.6064 75.5008 52.9676 80.3368 56.2997 84.4784C59.6319 88.62 63.8502 91.9618 68.6444 94.2578C73.4386 96.5538 78.6866 97.7457 84.0022 97.7457C89.3179 97.7457 94.5658 96.5538 99.36 94.2578C104.154 91.9618 108.373 88.62 111.705 84.4784C115.037 80.3368 117.398 75.5008 118.614 70.3262C119.831 65.1516 119.871 59.7702 118.733 54.5778H118.729ZM84 62.2222C96.0933 62.2222 104.547 60.8267 110.453 58.8178C110.934 62.5748 110.609 66.3911 109.499 70.0126C108.39 73.6341 106.522 76.9777 104.019 79.8208C101.516 82.6639 98.4369 84.9413 94.9855 86.5013C91.534 88.0613 87.7899 88.8682 84.0022 88.8682C80.2146 88.8682 76.4704 88.0613 73.019 86.5013C69.5675 84.9413 66.488 82.6639 63.9854 79.8208C61.4828 76.9777 59.6146 73.6341 58.5052 70.0126C57.3957 66.3911 57.0705 62.5748 57.5511 58.8178C63.4533 60.8267 71.9067 62.2222 84 62.2222ZM90.6667 106.667C91.8454 106.667 92.9759 107.135 93.8094 107.968C94.6429 108.802 95.1111 109.932 95.1111 111.111V117.253C95.1107 118.078 94.8805 118.887 94.4464 119.589C94.0124 120.291 93.3915 120.858 92.6533 121.227L90.6667 122.222L93.2311 135.044L112.076 106.778C113.364 106.778 114.564 106.787 115.649 106.796C139.671 112.276 164 123.449 164 140.258V160H4V140.258C4 123.449 29.3911 112.147 53.4133 106.667C53.3289 106.684 54.2311 106.698 55.88 106.711L74.92 135.267L77.3333 122.222L75.3467 121.227C74.6085 120.858 73.9876 120.291 73.5536 119.589C73.1195 118.887 72.8893 118.078 72.8889 117.253V111.111C72.8889 109.932 73.3571 108.802 74.1906 107.968C75.0241 107.135 76.1546 106.667 77.3333 106.667H90.6667ZM132.889 130.369C132.889 130.369 126.964 127.409 124 124.444C121.036 127.409 115.111 130.369 115.111 130.369C115.111 130.369 118.213 142.222 124 142.222C129.787 142.222 132.889 130.369 132.889 130.369Z" fill="#67135F" fill-opacity="0.6" shape-rendering="crispEdges"/>
</g>
</g>
</g>
<defs>
<filter id="filter0_d_371_92" x="0" y="0" width="168" height="168" filterUnits="userSpaceOnUse" color-interpolation-filters="sRGB">
<feFlood flood-opacity="0" result="BackgroundImageFix"/>
<feColorMatrix in="SourceAlpha" type="matrix" values="0 0 0 0 0 0 0 0 0 0 0 0 0 0 0 0 0 0 127 0" result="hardAlpha"/>
<feOffset dy="4"/>
<feGaussianBlur stdDeviation="2"/>
<feComposite in2="hardAlpha" operator="out"/>
<feColorMatrix type="matrix" values="0 0 0 0 0 0 0 0 0 0 0 0 0 0 0 0 0 0 0.25 0"/>
<feBlend mode="normal" in2="BackgroundImageFix" result="effect1_dropShadow_371_92"/>
<feBlend mode="normal" in="SourceGraphic" in2="effect1_dropShadow_371_92" result="shape"/>
</filter>
<filter id="filter1_d_371_92" x="0" y="0" width="168" height="168" filterUnits="userSpaceOnUse" color-interpolation-filters="sRGB">
<feFlood flood-opacity="0" result="BackgroundImageFix"/>
<feColorMatrix in="SourceAlpha" type="matrix" values="0 0 0 0 0 0 0 0 0 0 0 0 0 0 0 0 0 0 127 0" result="hardAlpha"/>
<feOffset dy="4"/>
<feGaussianBlur stdDeviation="2"/>
<feComposite in2="hardAlpha" operator="out"/>
<feColorMatrix type="matrix" values="0 0 0 0 0 0 0 0 0 0 0 0 0 0 0 0 0 0 0.25 0"/>
<feBlend mode="normal" in2="BackgroundImageFix" result="effect1_dropShadow_371_92"/>
<feBlend mode="normal" in="SourceGraphic" in2="effect1_dropShadow_371_92" result="shape"/>
</filter>
</defs>
</svg>
