<svg width="198" height="152" viewBox="0 0 198 152" fill="none" xmlns="http://www.w3.org/2000/svg">
<g filter="url(#filter0_d_371_93)">
<mask id="mask0_371_93" style="mask-type:alpha" maskUnits="userSpaceOnUse" x="4" y="9" width="190" height="134">
<path d="M110.875 21.375C110.875 14.8141 105.561 9.5 99 9.5C92.4391 9.5 87.125 14.8141 87.125 21.375C87.125 27.9359 92.4391 33.25 99 33.25C105.561 33.25 110.875 27.9359 110.875 21.375ZM46.75 61.75C53.3109 61.75 58.625 56.4359 58.625 49.875C58.625 43.3141 53.3109 38 46.75 38C40.1891 38 34.875 43.3141 34.875 49.875C34.875 56.4359 40.1891 61.75 46.75 61.75ZM13.5 123.5C8.24531 123.5 4 127.745 4 133C4 138.255 8.24531 142.5 13.5 142.5H184.5C189.755 142.5 194 138.255 194 133C194 127.745 189.755 123.5 184.5 123.5H13.5ZM151.25 61.75C157.811 61.75 163.125 56.4359 163.125 49.875C163.125 43.3141 157.811 38 151.25 38C144.689 38 139.375 43.3141 139.375 49.875C139.375 56.4359 144.689 61.75 151.25 61.75ZM63.375 93.0703L71.3609 107.884C73.2312 111.358 77.5359 112.634 81.0094 110.794C84.4828 108.953 85.7594 104.619 83.9188 101.145L73.1422 81.1063C73.6469 80.6016 74.0922 80.0375 74.4187 79.3844L82.375 64.5703V80.75C82.375 86.0047 86.6203 90.25 91.875 90.25H106.125C111.38 90.25 115.625 86.0047 115.625 80.75V64.5703L123.611 79.3844C123.967 80.0375 124.383 80.6016 124.888 81.1063L114.111 101.145C112.241 104.619 113.547 108.923 117.02 110.794C120.494 112.664 124.798 111.358 126.669 107.884L134.625 93.0703V104.5C134.625 109.755 138.87 114 144.125 114H158.375C163.63 114 167.875 109.755 167.875 104.5V93.0703L175.861 107.884C177.731 111.358 182.036 112.634 185.509 110.794C188.983 108.953 190.259 104.619 188.419 101.145L177.167 80.275C172.625 71.8141 163.778 66.5297 154.159 66.5297H148.341C143.502 66.5297 138.87 67.8656 134.863 70.2703L124.888 51.775C120.345 43.3141 111.498 38.0297 101.88 38.0297H96.0906C86.4719 38.0297 77.6547 43.3141 73.0828 51.775L63.1078 70.2703C59.1 67.8656 54.4688 66.5297 49.6297 66.5297H43.8406C34.2219 66.5297 25.4047 71.8141 20.8328 80.275L9.61094 101.116C7.74062 104.589 9.04688 108.894 12.5203 110.764C15.9938 112.634 20.2984 111.328 22.1688 107.855L30.125 93.0703V104.5C30.125 109.755 34.3703 114 39.625 114H53.875C59.1297 114 63.375 109.755 63.375 104.5V93.0703Z" fill="black"/>
</mask>
<g mask="url(#mask0_371_93)">
<path d="M110.875 21.375C110.875 14.8141 105.561 9.5 99 9.5C92.4391 9.5 87.125 14.8141 87.125 21.375C87.125 27.9359 92.4391 33.25 99 33.25C105.561 33.25 110.875 27.9359 110.875 21.375ZM46.75 61.75C53.3109 61.75 58.625 56.4359 58.625 49.875C58.625 43.3141 53.3109 38 46.75 38C40.1891 38 34.875 43.3141 34.875 49.875C34.875 56.4359 40.1891 61.75 46.75 61.75ZM13.5 123.5C8.24531 123.5 4 127.745 4 133C4 138.255 8.24531 142.5 13.5 142.5H184.5C189.755 142.5 194 138.255 194 133C194 127.745 189.755 123.5 184.5 123.5H13.5ZM151.25 61.75C157.811 61.75 163.125 56.4359 163.125 49.875C163.125 43.3141 157.811 38 151.25 38C144.689 38 139.375 43.3141 139.375 49.875C139.375 56.4359 144.689 61.75 151.25 61.75ZM63.375 93.0703L71.3609 107.884C73.2312 111.358 77.5359 112.634 81.0094 110.794C84.4828 108.953 85.7594 104.619 83.9188 101.145L73.1422 81.1063C73.6469 80.6016 74.0922 80.0375 74.4187 79.3844L82.375 64.5703V80.75C82.375 86.0047 86.6203 90.25 91.875 90.25H106.125C111.38 90.25 115.625 86.0047 115.625 80.75V64.5703L123.611 79.3844C123.967 80.0375 124.383 80.6016 124.888 81.1063L114.111 101.145C112.241 104.619 113.547 108.923 117.02 110.794C120.494 112.664 124.798 111.358 126.669 107.884L134.625 93.0703V104.5C134.625 109.755 138.87 114 144.125 114H158.375C163.63 114 167.875 109.755 167.875 104.5V93.0703L175.861 107.884C177.731 111.358 182.036 112.634 185.509 110.794C188.983 108.953 190.259 104.619 188.419 101.145L177.167 80.275C172.625 71.8141 163.778 66.5297 154.159 66.5297H148.341C143.502 66.5297 138.87 67.8656 134.863 70.2703L124.888 51.775C120.345 43.3141 111.498 38.0297 101.88 38.0297H96.0906C86.4719 38.0297 77.6547 43.3141 73.0828 51.775L63.1078 70.2703C59.1 67.8656 54.4688 66.5297 49.6297 66.5297H43.8406C34.2219 66.5297 25.4047 71.8141 20.8328 80.275L9.61094 101.116C7.74062 104.589 9.04688 108.894 12.5203 110.764C15.9938 112.634 20.2984 111.328 22.1688 107.855L30.125 93.0703V104.5C30.125 109.755 34.3703 114 39.625 114H53.875C59.1297 114 63.375 109.755 63.375 104.5V93.0703Z" fill="#67135F" fill-opacity="0.6"/>
</g>
</g>
<defs>
<filter id="filter0_d_371_93" x="0" y="0" width="198" height="160" filterUnits="userSpaceOnUse" color-interpolation-filters="sRGB">
<feFlood flood-opacity="0" result="BackgroundImageFix"/>
<feColorMatrix in="SourceAlpha" type="matrix" values="0 0 0 0 0 0 0 0 0 0 0 0 0 0 0 0 0 0 127 0" result="hardAlpha"/>
<feOffset dy="4"/>
<feGaussianBlur stdDeviation="2"/>
<feComposite in2="hardAlpha" operator="out"/>
<feColorMatrix type="matrix" values="0 0 0 0 0 0 0 0 0 0 0 0 0 0 0 0 0 0 0.25 0"/>
<feBlend mode="normal" in2="BackgroundImageFix" result="effect1_dropShadow_371_93"/>
<feBlend mode="normal" in="SourceGraphic" in2="effect1_dropShadow_371_93" result="shape"/>
</filter>
</defs>
</svg>
